<svg width="135" height="40" viewBox="0 0 135 40" fill="none" xmlns="http://www.w3.org/2000/svg">
<g clip-path="url(#clip0_2638_856)">
<path d="M24.769 20.3008C24.7797 19.4662 25.0014 18.6478 25.4135 17.9218C25.8255 17.1959 26.4145 16.5859 27.1256 16.1488C26.6738 15.5036 26.0779 14.9727 25.385 14.5981C24.6922 14.2236 23.9216 14.0157 23.1344 13.9911C21.4552 13.8148 19.8272 14.9959 18.9715 14.9959C18.0992 14.9959 16.7817 14.0086 15.363 14.0378C14.4453 14.0674 13.551 14.3343 12.7671 14.8123C11.9832 15.2904 11.3365 15.9633 10.8901 16.7656C8.95607 20.1141 10.3987 25.0351 12.2513 27.7417C13.1782 29.0671 14.2615 30.5475 15.6789 30.495C17.066 30.4375 17.584 29.6105 19.2583 29.6105C20.9171 29.6105 21.4031 30.495 22.8493 30.4616C24.3377 30.4375 25.2754 29.1304 26.1698 27.7925C26.8358 26.8481 27.3483 25.8044 27.6882 24.7C26.8235 24.3343 26.0856 23.7221 25.5665 22.9398C25.0474 22.1575 24.77 21.2397 24.769 20.3008Z" fill="white"/>
<path d="M22.0376 12.2108C22.8491 11.2366 23.2489 9.98445 23.1521 8.72021C21.9123 8.85044 20.767 9.44299 19.9445 10.3798C19.5424 10.8375 19.2344 11.3699 19.0381 11.9467C18.8419 12.5235 18.7612 13.1333 18.8008 13.7412C19.4209 13.7476 20.0344 13.6132 20.5951 13.3481C21.1558 13.083 21.649 12.6942 22.0376 12.2108Z" fill="white"/>
<path d="M42.3027 27.1397H37.5693L36.4326 30.4961H34.4277L38.9111 18.0781H40.9941L45.4775 30.4961H43.4385L42.3027 27.1397ZM38.0596 25.5908H41.8116L39.962 20.1436H39.9102L38.0596 25.5908Z" fill="white"/>
<path d="M55.1592 25.9699C55.1592 28.7834 53.6533 30.591 51.3809 30.591C50.8052 30.6211 50.2327 30.4885 49.7289 30.2084C49.2251 29.9283 48.8104 29.5119 48.5323 29.007H48.4893V33.4914H46.6309V21.4426H48.4297V22.9485H48.4639C48.7549 22.446 49.1766 22.0318 49.6842 21.7499C50.1918 21.4681 50.7664 21.3291 51.3467 21.3479C53.6445 21.3479 55.1592 23.1643 55.1592 25.9699ZM53.2491 25.9699C53.2491 24.1369 52.3018 22.9319 50.8565 22.9319C49.4365 22.9319 48.4815 24.1623 48.4815 25.9699C48.4815 27.7942 49.4365 29.0158 50.8565 29.0158C52.3018 29.0158 53.2491 27.8196 53.2491 25.9699Z" fill="white"/>
<path d="M65.1241 25.9699C65.1241 28.7834 63.6182 30.591 61.3457 30.591C60.7701 30.6211 60.1976 30.4885 59.6938 30.2084C59.19 29.9283 58.7753 29.5119 58.4971 29.007H58.4541V33.4914H56.5957V21.4426H58.3945V22.9484H58.4287C58.7197 22.446 59.1414 22.0318 59.649 21.7499C60.1567 21.4681 60.7312 21.3291 61.3115 21.3479C63.6094 21.3479 65.1241 23.1643 65.1241 25.9699ZM63.2139 25.9699C63.2139 24.1369 62.2666 22.9318 60.8213 22.9318C59.4014 22.9318 58.4463 24.1623 58.4463 25.9699C58.4463 27.7942 59.4014 29.0158 60.8213 29.0158C62.2666 29.0158 63.2139 27.8195 63.2139 25.9699H63.2139Z" fill="white"/>
<path d="M71.71 27.0362C71.8477 28.2676 73.044 29.0762 74.6787 29.0762C76.2452 29.0762 77.3721 28.2676 77.3721 27.1572C77.3721 26.1934 76.6924 25.6162 75.083 25.2207L73.4737 24.833C71.1934 24.2822 70.1348 23.2158 70.1348 21.4854C70.1348 19.3428 72.002 17.8711 74.6534 17.8711C77.2774 17.8711 79.0762 19.3428 79.1367 21.4854H77.2607C77.1484 20.2461 76.124 19.4981 74.627 19.4981C73.1299 19.4981 72.1055 20.2549 72.1055 21.3565C72.1055 22.2344 72.7598 22.751 74.3604 23.1465L75.7285 23.4824C78.2764 24.0849 79.335 25.1084 79.335 26.9248C79.335 29.248 77.4844 30.7031 74.541 30.7031C71.7871 30.7031 69.9277 29.2822 69.8076 27.0361L71.71 27.0362Z" fill="white"/>
<path d="M83.3457 19.2998V21.4424H85.0674V22.9141H83.3457V27.9053C83.3457 28.6807 83.6904 29.042 84.4473 29.042C84.6516 29.0384 84.8557 29.0241 85.0586 28.999V30.4619C84.7183 30.5255 84.3725 30.5543 84.0264 30.5478C82.1934 30.5478 81.4785 29.8593 81.4785 28.1035V22.9141H80.1621V21.4424H81.4785V19.2998H83.3457Z" fill="white"/>
<path d="M86.0654 25.9697C86.0654 23.1211 87.7432 21.3311 90.3594 21.3311C92.9844 21.3311 94.6543 23.1211 94.6543 25.9697C94.6543 28.8262 92.9932 30.6084 90.3594 30.6084C87.7265 30.6084 86.0654 28.8262 86.0654 25.9697ZM92.7607 25.9697C92.7607 24.0156 91.8652 22.8623 90.3594 22.8623C88.8535 22.8623 87.959 24.0244 87.959 25.9697C87.959 27.9316 88.8535 29.0762 90.3594 29.0762C91.8652 29.0762 92.7607 27.9316 92.7607 25.9697H92.7607Z" fill="white"/>
<path d="M96.1856 21.4425H97.958V22.9835H98.001C98.1209 22.5022 98.4029 22.0769 98.7995 21.779C99.1961 21.4811 99.6831 21.3288 100.179 21.3478C100.393 21.347 100.606 21.3703 100.815 21.4171V23.1554C100.545 23.0728 100.263 23.0348 99.9805 23.0431C99.7105 23.0321 99.4413 23.0797 99.1915 23.1826C98.9417 23.2855 98.717 23.4412 98.5331 23.6391C98.3491 23.837 98.2101 24.0724 98.1257 24.3291C98.0413 24.5857 98.0134 24.8576 98.0439 25.1261V30.4962H96.1855L96.1856 21.4425Z" fill="white"/>
<path d="M109.384 27.8369C109.134 29.4805 107.533 30.6084 105.485 30.6084C102.852 30.6084 101.217 28.8437 101.217 26.0127C101.217 23.1729 102.86 21.3311 105.407 21.3311C107.912 21.3311 109.487 23.0518 109.487 25.7969V26.4336H103.093V26.5459C103.063 26.8791 103.105 27.2148 103.215 27.5306C103.325 27.8464 103.501 28.1352 103.732 28.3778C103.962 28.6203 104.241 28.8111 104.551 28.9374C104.861 29.0637 105.194 29.1226 105.528 29.1103C105.967 29.1515 106.408 29.0498 106.785 28.8203C107.162 28.5909 107.454 28.246 107.619 27.8369L109.384 27.8369ZM103.102 25.1348H107.628C107.645 24.8352 107.599 24.5354 107.495 24.2541C107.39 23.9729 107.228 23.7164 107.02 23.5006C106.811 23.2849 106.56 23.1145 106.283 23.0003C106.005 22.8861 105.707 22.8305 105.407 22.8369C105.105 22.8351 104.805 22.8933 104.525 23.008C104.245 23.1227 103.99 23.2918 103.776 23.5054C103.561 23.7191 103.391 23.973 103.276 24.2527C103.16 24.5323 103.101 24.8321 103.102 25.1348V25.1348Z" fill="white"/>
<path d="M37.8262 8.73089C38.2158 8.70293 38.6067 8.76179 38.9709 8.90323C39.335 9.04466 39.6632 9.26514 39.9317 9.54876C40.2003 9.83239 40.4026 10.1721 40.524 10.5434C40.6454 10.9146 40.6829 11.3082 40.6338 11.6957C40.6338 13.602 39.6035 14.6977 37.8262 14.6977H35.6709V8.73089H37.8262ZM36.5976 13.8539H37.7226C38.0011 13.8705 38.2797 13.8249 38.5382 13.7203C38.7967 13.6157 39.0287 13.4547 39.2172 13.2491C39.4057 13.0436 39.546 12.7986 39.6278 12.532C39.7097 12.2653 39.7311 11.9838 39.6904 11.7079C39.7281 11.4331 39.7046 11.1533 39.6215 10.8886C39.5383 10.624 39.3977 10.381 39.2096 10.177C39.0216 9.9731 38.7907 9.81329 38.5337 9.70905C38.2766 9.60481 37.9996 9.55873 37.7226 9.5741H36.5976V13.8539Z" fill="white"/>
<path d="M41.6809 12.4443C41.6526 12.1484 41.6865 11.8498 41.7803 11.5677C41.8742 11.2857 42.0259 11.0263 42.2259 10.8063C42.4258 10.5864 42.6695 10.4106 42.9414 10.2903C43.2132 10.17 43.5072 10.1079 43.8045 10.1079C44.1017 10.1079 44.3957 10.17 44.6676 10.2903C44.9394 10.4106 45.1832 10.5864 45.3831 10.8063C45.583 11.0263 45.7348 11.2857 45.8286 11.5677C45.9225 11.8498 45.9563 12.1484 45.928 12.4443C45.9569 12.7405 45.9234 13.0395 45.8298 13.322C45.7362 13.6045 45.5846 13.8644 45.3846 14.0848C45.1846 14.3052 44.9407 14.4813 44.6686 14.6019C44.3964 14.7224 44.1021 14.7847 43.8045 14.7847C43.5069 14.7847 43.2125 14.7224 42.9404 14.6019C42.6683 14.4813 42.4244 14.3052 42.2244 14.0848C42.0244 13.8644 41.8727 13.6045 41.7791 13.322C41.6855 13.0395 41.6521 12.7405 41.6809 12.4443ZM45.0139 12.4443C45.0139 11.4682 44.5755 10.8974 43.8059 10.8974C43.0335 10.8974 42.5989 11.4682 42.5989 12.4443C42.5989 13.4282 43.0335 13.9946 43.8059 13.9946C44.5755 13.9946 45.014 13.4243 45.014 12.4443H45.0139Z" fill="white"/>
<path d="M51.5732 14.6978H50.6514L49.7207 11.3813H49.6504L48.7236 14.6978H47.8105L46.5693 10.1948H47.4707L48.2773 13.6308H48.3438L49.2695 10.1948H50.1221L51.0479 13.6308H51.1182L51.9209 10.1948H52.8096L51.5732 14.6978Z" fill="white"/>
<path d="M53.8535 10.1949H54.709V10.9102H54.7754C54.888 10.6533 55.0781 10.4379 55.3189 10.2941C55.5598 10.1503 55.8395 10.0852 56.1191 10.1079C56.3382 10.0915 56.5582 10.1245 56.7628 10.2046C56.9674 10.2847 57.1514 10.4098 57.3011 10.5707C57.4508 10.7315 57.5623 10.924 57.6275 11.1338C57.6927 11.3436 57.7099 11.5654 57.6777 11.7827V14.6977H56.7891V12.0059C56.7891 11.2823 56.4746 10.9224 55.8174 10.9224C55.6686 10.9155 55.5201 10.9408 55.3821 10.9966C55.244 11.0525 55.1197 11.1375 55.0175 11.2459C54.9154 11.3543 54.8379 11.4834 54.7904 11.6246C54.7429 11.7657 54.7264 11.9154 54.7422 12.0635V14.6978H53.8535L53.8535 10.1949Z" fill="white"/>
<path d="M59.0938 8.43701H59.9824V14.6978H59.0938V8.43701Z" fill="white"/>
<path d="M61.218 12.4444C61.1897 12.1484 61.2236 11.8499 61.3175 11.5678C61.4113 11.2857 61.5631 11.0263 61.7631 10.8064C61.963 10.5864 62.2068 10.4106 62.4786 10.2903C62.7505 10.17 63.0445 10.1079 63.3418 10.1079C63.6391 10.1079 63.9331 10.17 64.205 10.2903C64.4768 10.4106 64.7206 10.5864 64.9205 10.8064C65.1205 11.0263 65.2723 11.2857 65.3661 11.5678C65.46 11.8499 65.4939 12.1484 65.4656 12.4444C65.4944 12.7406 65.4609 13.0396 65.3673 13.3221C65.2737 13.6046 65.122 13.8645 64.922 14.0849C64.722 14.3053 64.478 14.4814 64.2059 14.6019C63.9338 14.7225 63.6394 14.7847 63.3418 14.7847C63.0442 14.7847 62.7498 14.7225 62.4777 14.6019C62.2056 14.4814 61.9617 14.3053 61.7616 14.0849C61.5616 13.8645 61.4099 13.6046 61.3163 13.3221C61.2227 13.0396 61.1892 12.7406 61.218 12.4444ZM64.551 12.4444C64.551 11.4683 64.1125 10.8975 63.343 10.8975C62.5706 10.8975 62.136 11.4683 62.136 12.4444C62.136 13.4283 62.5706 13.9947 63.343 13.9947C64.1126 13.9947 64.551 13.4244 64.551 12.4444H64.551Z" fill="white"/>
<path d="M66.4014 13.4243C66.4014 12.6138 67.0049 12.1465 68.0762 12.0801L69.2959 12.0098V11.6211C69.2959 11.1455 68.9814 10.877 68.374 10.877C67.8779 10.877 67.5342 11.0591 67.4355 11.3774H66.5752C66.666 10.604 67.3936 10.1079 68.415 10.1079C69.5439 10.1079 70.1807 10.6699 70.1807 11.6211V14.6978H69.3252V14.0649H69.2549C69.1122 14.2919 68.9118 14.477 68.6741 14.6012C68.4365 14.7254 68.1702 14.7843 67.9023 14.7719C67.7133 14.7916 67.5223 14.7714 67.3415 14.7127C67.1607 14.654 66.9943 14.5581 66.8529 14.4311C66.7114 14.3042 66.5982 14.149 66.5204 13.9756C66.4427 13.8021 66.4021 13.6144 66.4014 13.4243ZM69.2959 13.0395V12.6631L68.1963 12.7334C67.5762 12.7749 67.2949 12.9858 67.2949 13.3828C67.2949 13.7881 67.6465 14.0239 68.1299 14.0239C68.2716 14.0382 68.4146 14.0239 68.5506 13.9819C68.6866 13.9398 68.8128 13.8707 68.9216 13.7789C69.0304 13.6871 69.1196 13.5743 69.1839 13.4473C69.2482 13.3202 69.2863 13.1816 69.2959 13.0395Z" fill="white"/>
<path d="M71.3486 12.4444C71.3486 11.0215 72.0801 10.1201 73.2178 10.1201C73.4992 10.1072 73.7785 10.1746 74.023 10.3145C74.2675 10.4544 74.4672 10.661 74.5986 10.9101H74.665V8.43701H75.5537V14.6978H74.7022V13.9863H74.6318C74.4902 14.2338 74.2836 14.4378 74.0344 14.5763C73.7851 14.7148 73.5027 14.7825 73.2178 14.772C72.0723 14.772 71.3486 13.8706 71.3486 12.4444ZM72.2666 12.4444C72.2666 13.3994 72.7168 13.9741 73.4698 13.9741C74.2188 13.9741 74.6817 13.3911 74.6817 12.4483C74.6817 11.5098 74.2139 10.9185 73.4698 10.9185C72.7217 10.9185 72.2666 11.4971 72.2666 12.4444H72.2666Z" fill="white"/>
<path d="M79.2298 12.4443C79.2015 12.1484 79.2353 11.8498 79.3292 11.5677C79.423 11.2857 79.5748 11.0263 79.7747 10.8063C79.9746 10.5864 80.2183 10.4106 80.4902 10.2903C80.762 10.17 81.056 10.1079 81.3533 10.1079C81.6506 10.1079 81.9446 10.17 82.2164 10.2903C82.4883 10.4106 82.732 10.5864 82.9319 10.8063C83.1319 11.0263 83.2836 11.2857 83.3775 11.5677C83.4713 11.8498 83.5052 12.1484 83.4768 12.4443C83.5057 12.7405 83.4722 13.0395 83.3786 13.322C83.2851 13.6045 83.1334 13.8644 82.9334 14.0848C82.7334 14.3052 82.4895 14.4813 82.2174 14.6019C81.9453 14.7224 81.6509 14.7847 81.3533 14.7847C81.0557 14.7847 80.7613 14.7224 80.4892 14.6019C80.2171 14.4813 79.9732 14.3052 79.7732 14.0848C79.5732 13.8644 79.4216 13.6045 79.328 13.322C79.2344 13.0395 79.2009 12.7405 79.2298 12.4443ZM82.5628 12.4443C82.5628 11.4682 82.1243 10.8974 81.3548 10.8974C80.5823 10.8974 80.1478 11.4682 80.1478 12.4443C80.1478 13.4282 80.5823 13.9946 81.3548 13.9946C82.1243 13.9946 82.5628 13.4243 82.5628 12.4443Z" fill="white"/>
<path d="M84.6699 10.1949H85.5254V10.9102H85.5918C85.7045 10.6533 85.8945 10.4379 86.1353 10.2941C86.3762 10.1503 86.6559 10.0852 86.9356 10.1079C87.1547 10.0915 87.3746 10.1245 87.5792 10.2046C87.7838 10.2847 87.9678 10.4098 88.1175 10.5707C88.2672 10.7315 88.3787 10.924 88.4439 11.1338C88.5091 11.3436 88.5263 11.5654 88.4941 11.7827V14.6977H87.6055V12.0059C87.6055 11.2823 87.291 10.9224 86.6338 10.9224C86.485 10.9155 86.3365 10.9408 86.1985 10.9966C86.0604 11.0525 85.9361 11.1375 85.8339 11.2459C85.7318 11.3543 85.6543 11.4834 85.6068 11.6246C85.5593 11.7657 85.5428 11.9154 85.5586 12.0635V14.6978H84.6699V10.1949Z" fill="white"/>
<path d="M93.5156 9.07373V10.2153H94.4912V10.9639H93.5156V13.2793C93.5156 13.751 93.71 13.9575 94.1523 13.9575C94.2656 13.9572 94.3787 13.9503 94.4912 13.937V14.6772C94.3316 14.7058 94.1699 14.721 94.0078 14.7226C93.0195 14.7226 92.626 14.375 92.626 13.5068V10.9638H91.9111V10.2153H92.626V9.07373H93.5156Z" fill="white"/>
<path d="M95.7051 8.43701H96.5859V10.9185H96.6562C96.7744 10.6591 96.9696 10.4425 97.2153 10.2982C97.461 10.1539 97.7452 10.0888 98.0292 10.1118C98.2472 10.1 98.4651 10.1364 98.6674 10.2184C98.8697 10.3004 99.0513 10.4261 99.1995 10.5864C99.3476 10.7468 99.4585 10.9378 99.5243 11.146C99.5901 11.3541 99.6091 11.5742 99.58 11.7905V14.6978H98.6905V12.0098C98.6905 11.2905 98.3555 10.9263 97.7276 10.9263C97.5748 10.9137 97.4212 10.9347 97.2774 10.9878C97.1337 11.0408 97.0032 11.1247 96.8952 11.2334C96.7872 11.3421 96.7043 11.4732 96.6522 11.6173C96.6002 11.7614 96.5802 11.9152 96.5938 12.0679V14.6977H95.7051L95.7051 8.43701Z" fill="white"/>
<path d="M104.761 13.482C104.641 13.8935 104.379 14.2495 104.022 14.4877C103.666 14.7258 103.237 14.831 102.81 14.7847C102.514 14.7926 102.219 14.7357 101.946 14.6182C101.674 14.5007 101.43 14.3253 101.232 14.1041C101.034 13.883 100.887 13.6214 100.8 13.3376C100.713 13.0538 100.69 12.7545 100.73 12.4605C100.691 12.1656 100.715 11.8657 100.801 11.581C100.888 11.2964 101.035 11.0336 101.231 10.8105C101.428 10.5874 101.671 10.4093 101.943 10.2881C102.214 10.1669 102.509 10.1054 102.806 10.108C104.059 10.108 104.815 10.964 104.815 12.378V12.6881H101.635V12.7379C101.621 12.9031 101.642 13.0695 101.696 13.2262C101.751 13.383 101.837 13.5267 101.95 13.6481C102.063 13.7696 102.2 13.8661 102.352 13.9315C102.504 13.9969 102.669 14.0297 102.835 14.0279C103.047 14.0534 103.263 14.0151 103.453 13.9179C103.644 13.8207 103.802 13.669 103.906 13.482L104.761 13.482ZM101.635 12.0308H103.91C103.921 11.8797 103.9 11.7279 103.85 11.5852C103.799 11.4425 103.718 11.312 103.614 11.2021C103.51 11.0923 103.383 11.0055 103.243 10.9473C103.103 10.8891 102.953 10.8609 102.801 10.8643C102.648 10.8624 102.495 10.8913 102.353 10.9492C102.21 11.0072 102.081 11.093 101.972 11.2017C101.864 11.3104 101.778 11.4398 101.72 11.5822C101.662 11.7246 101.633 11.8771 101.635 12.0308H101.635Z" fill="white"/>
</g>
<rect x="0.5" y="0.5" width="134" height="39" rx="3.5" stroke="white"/>
<defs>
<clipPath id="clip0_2638_856">
<rect width="135" height="40" rx="4" fill="white"/>
</clipPath>
</defs>
</svg>
