<svg width="135" height="40" viewBox="0 0 135 40" fill="none" xmlns="http://www.w3.org/2000/svg">
<rect x="0.5" y="0.5" width="134" height="39" rx="3.5" stroke="white"/>
<path d="M106.935 30H108.801V17.4984H106.935V30ZM123.742 22.002L121.603 27.4219H121.539L119.319 22.002H117.309L120.639 29.577L118.74 33.791H120.686L125.817 22.002H123.742ZM113.159 28.5801C112.549 28.5801 111.696 28.2742 111.696 27.5184C111.696 26.5535 112.758 26.1836 113.674 26.1836C114.494 26.1836 114.881 26.3602 115.379 26.6016C115.234 27.7598 114.237 28.5801 113.159 28.5801ZM113.385 21.7285C112.034 21.7285 110.635 22.3238 110.056 23.6426L111.712 24.334C112.066 23.6426 112.725 23.4176 113.417 23.4176C114.382 23.4176 115.363 23.9961 115.379 25.0258V25.1543C115.041 24.9613 114.317 24.6719 113.433 24.6719C111.647 24.6719 109.83 25.6527 109.83 27.4863C109.83 29.159 111.294 30.2367 112.934 30.2367C114.188 30.2367 114.881 29.6738 115.314 29.0141H115.379V29.9797H117.181V25.1863C117.181 22.9668 115.523 21.7285 113.385 21.7285ZM101.853 23.5238H99.1989V19.2387H101.853C103.248 19.2387 104.04 20.3934 104.04 21.3812C104.04 22.35 103.248 23.5238 101.853 23.5238ZM101.805 17.4984H97.3337V30H99.1989V25.2637H101.805C103.873 25.2637 105.906 23.7668 105.906 21.3812C105.906 18.9961 103.873 17.4984 101.805 17.4984ZM77.4235 28.5824C76.1344 28.5824 75.0555 27.5027 75.0555 26.0211C75.0555 24.5223 76.1344 23.4273 77.4235 23.4273C78.6962 23.4273 79.695 24.5223 79.695 26.0211C79.695 27.5027 78.6962 28.5824 77.4235 28.5824ZM79.5661 22.702H79.5016C79.0829 22.2027 78.277 21.7516 77.2626 21.7516C75.1356 21.7516 73.1864 23.6207 73.1864 26.0211C73.1864 28.4051 75.1356 30.2578 77.2626 30.2578C78.277 30.2578 79.0829 29.8066 79.5016 29.2914H79.5661V29.9031C79.5661 31.5309 78.6962 32.4004 77.2946 32.4004C76.1512 32.4004 75.4423 31.5789 75.152 30.8863L73.5251 31.5629C73.9919 32.6902 75.2321 34.0762 77.2946 34.0762C79.486 34.0762 81.3387 32.7871 81.3387 29.6453V22.0094H79.5661V22.702ZM82.6278 30H84.4958V17.4984H82.6278V30ZM87.2509 25.8758C87.2028 24.2324 88.5243 23.3949 89.4743 23.3949C90.2157 23.3949 90.8434 23.7656 91.0536 24.2969L87.2509 25.8758ZM93.0505 24.4578C92.6962 23.5078 91.6169 21.7516 89.4098 21.7516C87.2184 21.7516 85.3981 23.4754 85.3981 26.0047C85.3981 28.3891 87.2028 30.2578 89.6188 30.2578C91.568 30.2578 92.6962 29.066 93.1637 28.373L91.7137 27.4062C91.2302 28.1152 90.57 28.5824 89.6188 28.5824C88.6688 28.5824 87.9919 28.1473 87.5575 27.2934L93.2438 24.9414L93.0505 24.4578ZM47.7427 23.0566V24.8609H52.0602C51.9313 25.8758 51.593 26.6168 51.0774 27.1324C50.4489 27.7605 49.4661 28.4535 47.7427 28.4535C45.0844 28.4535 43.0063 26.3109 43.0063 23.6527C43.0063 20.9945 45.0844 18.8516 47.7427 18.8516C49.1766 18.8516 50.2235 19.4156 50.9969 20.1406L52.27 18.8676C51.1903 17.8367 49.7567 17.0473 47.7427 17.0473C44.1012 17.0473 41.0403 20.0117 41.0403 23.6527C41.0403 27.2934 44.1012 30.2578 47.7427 30.2578C49.7079 30.2578 51.1903 29.6133 52.3501 28.4051C53.5423 27.2129 53.913 25.5375 53.913 24.184C53.913 23.7656 53.8805 23.3789 53.8161 23.0566H47.7427ZM58.8216 28.5824C57.5325 28.5824 56.4208 27.5191 56.4208 26.0047C56.4208 24.4742 57.5325 23.4273 58.8216 23.4273C60.1102 23.4273 61.2219 24.4742 61.2219 26.0047C61.2219 27.5191 60.1102 28.5824 58.8216 28.5824ZM58.8216 21.7516C56.4688 21.7516 54.552 23.5398 54.552 26.0047C54.552 28.4535 56.4688 30.2578 58.8216 30.2578C61.1735 30.2578 63.0907 28.4535 63.0907 26.0047C63.0907 23.5398 61.1735 21.7516 58.8216 21.7516ZM68.1344 28.5824C66.8462 28.5824 65.7341 27.5191 65.7341 26.0047C65.7341 24.4742 66.8462 23.4273 68.1344 23.4273C69.4235 23.4273 70.5348 24.4742 70.5348 26.0047C70.5348 27.5191 69.4235 28.5824 68.1344 28.5824ZM68.1344 21.7516C65.7825 21.7516 63.8657 23.5398 63.8657 26.0047C63.8657 28.4535 65.7825 30.2578 68.1344 30.2578C70.4872 30.2578 72.404 28.4535 72.404 26.0047C72.404 23.5398 70.4872 21.7516 68.1344 21.7516Z" fill="white"/>
<path d="M44.4773 13.2344C43.5808 13.2344 42.8096 12.9189 42.1878 12.2973C41.5658 11.6752 41.2507 10.8963 41.2507 9.99062C41.2507 9.08493 41.5659 8.30743 42.1878 7.68398C42.8096 7.06223 43.5808 6.74687 44.4773 6.74687C44.934 6.74687 45.3603 6.82576 45.7677 6.99003C46.1753 7.15433 46.5087 7.38239 46.7712 7.68085L46.8332 7.75136L46.1337 8.45058L46.0638 8.36464C45.8897 8.1507 45.6683 7.98449 45.3876 7.86367C45.1081 7.74315 44.8018 7.68749 44.4773 7.68749C43.8458 7.68749 43.3219 7.90194 42.8843 8.33788C42.8842 8.33799 42.884 8.33798 42.8839 8.33809C42.4563 8.78283 42.2413 9.32431 42.2413 9.99063C42.2413 10.6575 42.4566 11.199 42.8847 11.6439C43.3222 12.0797 43.8462 12.2953 44.4773 12.2953C45.0553 12.2953 45.5334 12.1339 45.9093 11.8145H45.9095C46.2594 11.5171 46.4694 11.1153 46.5437 10.6031H44.3773V9.68125H47.48L47.4933 9.76563C47.5187 9.92768 47.5367 10.0841 47.5367 10.2344C47.5367 11.0946 47.2744 11.7967 46.7599 12.3133C46.1791 12.929 45.4153 13.2344 44.4773 13.2344L44.4773 13.2344ZM71.4191 13.2344C70.5212 13.2344 69.759 12.9188 69.1453 12.2973C69.1452 12.2972 69.1452 12.2972 69.1451 12.2971C69.145 12.297 69.145 12.297 69.1449 12.2969C68.5303 11.6821 68.2253 10.903 68.2253 9.99061C68.2253 9.07822 68.5303 8.29915 69.1449 7.68436C69.1449 7.68429 69.145 7.68426 69.1451 7.68416L69.1453 7.68396C69.759 7.06236 70.5212 6.74685 71.4191 6.74685C72.3152 6.74685 73.0776 7.06244 73.6914 7.69334C74.3062 8.30803 74.6113 9.08562 74.6113 9.9906C74.6113 10.903 74.3063 11.6821 73.6917 12.2969L73.6916 12.2971C73.0774 12.919 72.3079 13.2344 71.4191 13.2344L71.4191 13.2344ZM48.4246 13.1V6.88124H48.5246H52.1386V7.82187H49.398V9.52968H51.8699V10.4516H49.398V12.1609H52.1386V13.1H48.4246ZM54.4117 13.1V7.82187H52.7304V6.88124H57.0664V7.82187H56.9664H55.3851V13.1H54.4117ZM59.8375 13.1V6.88124H60.8109V6.98124V13.1H59.8375ZM63.2613 13.1V7.82187H61.58V6.88124H65.916V7.82187H65.816H64.2347V13.1H63.2613ZM75.4753 13.1V6.88124H76.573L79.3666 11.3535L79.3425 10.5045V6.88124H80.316V13.1H79.3527L76.4248 8.40175L76.4488 9.25019V9.25156V13.1H75.4753ZM71.4191 12.2953C72.0506 12.2953 72.5661 12.0799 72.9863 11.6447L72.9869 11.6439L72.9875 11.6433C73.4137 11.217 73.6222 10.6682 73.6222 9.99059C73.6222 9.31461 73.4136 8.76397 72.9875 8.33785L72.9869 8.33725L72.9863 8.33665C72.5661 7.90152 72.0507 7.68743 71.4191 7.68743C70.7864 7.68743 70.271 7.90115 69.8429 8.33626L69.8425 8.33666C69.4242 8.77312 69.216 9.3148 69.216 9.99057C69.216 10.668 69.4241 11.2079 69.8425 11.6445L69.8429 11.6449C70.2711 12.0801 70.7866 12.2953 71.4191 12.2953V12.2953Z" fill="white"/>
<path d="M20.714 19.4232L10.0675 30.7232C10.0679 30.7256 10.0687 30.7275 10.0691 30.7299C10.3956 31.9568 11.5163 32.8604 12.8464 32.8604C13.3781 32.8604 13.8773 32.7166 14.3054 32.4643L14.3394 32.4443L26.3234 25.5291L20.714 19.4232Z" fill="#EA4335"/>
<path d="M31.4847 17.4991L31.4745 17.4921L26.3007 14.4928L20.4718 19.6796L26.321 25.528L31.4675 22.5585C32.3698 22.0714 32.9823 21.1202 32.9823 20.0233C32.9823 18.9343 32.378 17.9878 31.4847 17.4991Z" fill="#FBBC04"/>
<path d="M10.0668 9.27635C10.0028 9.51235 9.96912 9.75955 9.96912 10.0162V29.9838C9.96912 30.2401 10.0024 30.4881 10.0672 30.7233L21.0801 19.7123L10.0668 9.27635Z" fill="#4285F4"/>
<path d="M20.7916 19.9999L26.3022 14.4909L14.3318 7.55071C13.8967 7.29011 13.3889 7.13971 12.8455 7.13971C11.5154 7.13971 10.3932 8.04481 10.0666 9.27331C10.0662 9.27451 10.0662 9.27531 10.0662 9.27641L20.7916 19.9999Z" fill="#34A853"/>
</svg>
